<svg width="20" height="12" viewBox="0 0 20 12" fill="none" xmlns="http://www.w3.org/2000/svg">
<g clip-path="url(#clip0_4_333)">
<path d="M17.7344 0.638856C17.517 0.345772 17.1054 0.286496 16.8123 0.500547C16.5192 0.71789 16.4599 1.12953 16.674 1.42261C17.6586 2.75302 18.1822 4.33699 18.1822 5.99671C18.1822 7.65642 17.6619 9.23381 16.6806 10.5642C16.4632 10.8573 16.5258 11.2689 16.8189 11.4863C16.9374 11.5719 17.0724 11.6147 17.2108 11.6147C17.4116 11.6147 17.6125 11.5225 17.7409 11.348C18.8935 9.79034 19.4994 7.93963 19.4994 5.99671C19.4994 4.05379 18.8902 2.19649 17.7344 0.638856Z" fill="#231F20"/>
<path d="M15.3633 2.32492C15.146 2.03184 14.7343 1.96927 14.4413 2.18661C14.1482 2.40396 14.0889 2.81559 14.3029 3.10868C14.9253 3.94841 15.2546 4.94951 15.2546 5.99671C15.2546 7.04391 14.9253 8.04172 14.3062 8.88145C14.0889 9.17454 14.1515 9.58617 14.4445 9.80352C14.5631 9.88914 14.6981 9.93195 14.8364 9.93195C15.0373 9.93195 15.2382 9.83974 15.3666 9.66521C16.157 8.59825 16.5719 7.33041 16.5719 5.99671C16.5719 4.66301 16.1537 3.39188 15.3633 2.32492Z" fill="#231F20"/>
<path d="M12.3106 3.82657C12.0176 4.04391 11.9583 4.45555 12.1723 4.74863C12.4424 5.11087 12.584 5.54226 12.584 5.99671C12.584 6.45115 12.4424 6.87926 12.1756 7.24149C11.9583 7.53458 12.0208 7.94622 12.3139 8.16356C12.4325 8.24918 12.5675 8.29199 12.7058 8.29199C12.9067 8.29199 13.1076 8.19978 13.236 8.02525C13.674 7.43579 13.9045 6.73436 13.9045 5.99671C13.9045 5.25906 13.674 4.55434 13.236 3.96488C13.0187 3.67179 12.607 3.60922 12.3139 3.82657H12.3106Z" fill="#231F20"/>
<path d="M8.69813 0.276519L4.8551 3.30616H2.35565C1.27222 3.30616 0.386383 4.192 0.386383 5.27542V6.72109C0.386383 7.80451 1.27222 8.69035 2.35565 8.69035H4.8551L8.69813 11.72C9.53787 12.3819 10.7728 11.7826 10.7728 10.7123V1.2842C10.7728 0.21395 9.53787 -0.385391 8.69813 0.276519Z" fill="#231F20"/>
</g>
<defs>
<clipPath id="clip0_4_333">
<rect width="19.1131" height="12" fill="white" transform="translate(0.386383)"/>
</clipPath>
</defs>
</svg>
