<svg width="16" height="21" viewBox="0 0 16 21" fill="none" xmlns="http://www.w3.org/2000/svg">
<g clip-path="url(#clip0_4_219)">
<path d="M13.4405 0H11.7226C10.309 0 9.16308 1.53858 9.16308 3.4365V16.8435C9.16308 18.7414 10.309 20.28 11.7226 20.28H13.4405C14.8541 20.28 16 18.7414 16 16.8435V3.4365C16 1.53858 14.8541 0 13.4405 0Z" fill="#231F20"/>
<path d="M4.27738 0H2.55954C1.14595 0 0 1.53858 0 3.4365V16.8435C0 18.7414 1.14595 20.28 2.55954 20.28H4.27738C5.69097 20.28 6.83692 18.7414 6.83692 16.8435V3.4365C6.83692 1.53858 5.69097 0 4.27738 0Z" fill="#231F20"/>
</g>
<defs>
<clipPath id="clip0_4_219">
<rect width="16" height="20.28" fill="white"/>
</clipPath>
</defs>
</svg>
