<svg width="18" height="5" viewBox="0 0 18 5" fill="none" xmlns="http://www.w3.org/2000/svg">
<g clip-path="url(#clip0_4_188)">
<path d="M4.80511 4.272C5.78239 3.29472 5.78239 1.71024 4.80511 0.732961C3.82783 -0.244318 2.24335 -0.244318 1.26607 0.732961C0.288792 1.71024 0.288792 3.29472 1.26607 4.272C2.24335 5.24928 3.82783 5.24928 4.80511 4.272Z" fill="#231F20"/>
<path d="M9.72699 4.93819C11.0721 4.62071 11.9052 3.27291 11.5877 1.92779C11.2702 0.582663 9.92243 -0.250407 8.57731 0.0670703C7.23218 0.384548 6.39911 1.73235 6.71659 3.07747C7.03407 4.4226 8.38187 5.25567 9.72699 4.93819Z" fill="#231F20"/>
<path d="M16.0736 4.93691C17.4187 4.61943 18.2518 3.27163 17.9343 1.9265C17.6168 0.581381 16.269 -0.251689 14.9239 0.0657883C13.5788 0.383266 12.7457 1.73107 13.0632 3.07619C13.3807 4.42131 14.7285 5.25438 16.0736 4.93691Z" fill="#231F20"/>
</g>
<defs>
<clipPath id="clip0_4_188">
<rect width="17.4678" height="5" fill="white" transform="translate(0.532227)"/>
</clipPath>
</defs>
</svg>
